<svg width="356" height="167" viewBox="0 0 356 167" fill="none" xmlns="http://www.w3.org/2000/svg">
<rect width="356" height="167" fill="#F3F8FF"/>
<path fill-rule="evenodd" clip-rule="evenodd" d="M57.4814 100.617L57.4454 129L63.4454 129.008L63.4815 100.492L74.4268 126.823L79.9672 124.52L69.0971 98.3701L89.0964 118.42L93.3445 114.183L73.2593 94.0468L99.5275 104.948L101.827 99.4068L75.5558 88.5037H104V82.5037H75.624L101.852 71.6717L99.5612 66.126L73.4456 76.9118L93.5273 57.0354L89.3066 52.771L68.9757 72.894L79.9316 46.4695L74.3891 44.1715L63.5197 70.3874L63.5557 42.0076L57.5557 42L57.5195 70.5179L46.5732 44.1844L41.0328 46.4874L51.9019 72.6351L31.9043 52.5867L27.6563 56.824L47.7417 76.9604L21.4727 66.0584L19.1728 71.6001L45.4456 82.5037H17V88.5037H45.3781L19.1493 99.3362L21.4396 104.882L47.554 94.0966L27.4729 113.972L31.6937 118.237L52.0236 98.1148L41.0683 124.538L46.6107 126.836L57.4814 100.617Z" fill="#8FD5F5"/>
<path d="M149.625 81.5625C150.042 81.8125 150.438 82.2708 150.812 82.9375C151.229 83.6042 151.604 84.375 151.938 85.25C152.271 86.0833 152.542 87 152.75 88C152.958 88.9583 153.062 89.875 153.062 90.75C153.062 91.3333 152.979 92.2083 152.812 93.375C152.646 94.5 152.438 95.75 152.188 97.125C151.938 98.4583 151.667 99.8333 151.375 101.25C151.083 102.667 150.812 103.958 150.562 105.125C150.312 106.292 150.083 107.271 149.875 108.062C149.667 108.854 149.542 109.292 149.5 109.375C149.417 109.5 149.167 109.583 148.75 109.625C148.375 109.667 147.958 109.646 147.5 109.562C147.083 109.479 146.688 109.354 146.312 109.188C145.938 109.021 145.708 108.812 145.625 108.562C145.583 108.396 145.562 107.875 145.562 107C145.604 106.083 145.646 105 145.688 103.75C145.771 102.5 145.854 101.146 145.938 99.6875C146.062 98.2292 146.167 96.875 146.25 95.625C146.333 94.3333 146.396 93.2292 146.438 92.3125C146.521 91.3958 146.562 90.8542 146.562 90.6875C146.604 90.0208 146.542 89.375 146.375 88.75C146.25 88.0833 146.062 87.5208 145.812 87.0625C145.604 86.6042 145.354 86.25 145.062 86C144.812 85.75 144.562 85.6667 144.312 85.75C143.938 85.8333 143.562 85.9375 143.188 86.0625C142.854 86.1875 142.562 86.2917 142.312 86.375C141.979 86.5 141.688 86.625 141.438 86.75C141.396 89.8333 141.333 92.8542 141.25 95.8125C141.167 98.7708 141.062 101.438 140.938 103.812C140.812 106.146 140.667 108.042 140.5 109.5C140.375 110.917 140.229 111.646 140.062 111.688C139.729 111.729 139.354 111.583 138.938 111.25C138.562 110.917 138.188 110.5 137.812 110C137.438 109.542 137.104 109.042 136.812 108.5C136.562 107.958 136.396 107.5 136.312 107.125C135.979 103.042 135.708 99.3958 135.5 96.1875C135.292 92.9375 135.125 90.0625 135 87.5625C134.875 85.0625 134.771 82.8958 134.688 81.0625C134.646 79.2292 134.625 77.6667 134.625 76.375C134.583 73.3333 134.625 71.2292 134.75 70.0625C134.917 69.1875 135.292 68.3542 135.875 67.5625C136.458 66.7292 137.083 66 137.75 65.375C138.458 64.75 139.104 64.2917 139.688 64C140.312 63.6667 140.729 63.5833 140.938 63.75C141.062 63.875 141.167 64.4583 141.25 65.5C141.375 66.5 141.458 67.8542 141.5 69.5625C141.542 71.2292 141.562 73.1667 141.562 75.375C141.562 77.5417 141.542 79.8333 141.5 82.25C143.167 81.5833 144.708 81.1667 146.125 81C147.583 80.8333 148.75 81.0208 149.625 81.5625ZM172.75 77.125C173 77.4167 173.229 77.7292 173.438 78.0625C173.646 78.3542 173.833 78.7708 174 79.3125C174.167 79.8125 174.292 80.4792 174.375 81.3125C174.5 82.1458 174.562 83.2292 174.562 84.5625C174.562 86.6875 174.5 88.8333 174.375 91C174.292 93.125 174.208 95 174.125 96.625C174.083 98.0833 174.042 99.4375 174 100.688C173.958 101.938 173.917 103.042 173.875 104C173.833 104.917 173.771 105.646 173.688 106.188C173.646 106.729 173.604 107.021 173.562 107.062C173.396 107.188 173.125 107.146 172.75 106.938C172.417 106.688 172.042 106.375 171.625 106C171.25 105.625 170.896 105.229 170.562 104.812C170.229 104.396 170.021 104.062 169.938 103.812C169.938 103.604 169.875 103 169.75 102C168.75 102.583 167.646 103 166.438 103.25C165.229 103.458 164.021 103.542 162.812 103.5C161.646 103.417 160.562 103.188 159.562 102.812C158.562 102.438 157.812 101.938 157.312 101.312C157.104 101.062 156.917 100.688 156.75 100.188C156.625 99.6875 156.5 99.125 156.375 98.5C156.292 97.8333 156.208 97.1458 156.125 96.4375C156.042 95.6875 155.979 95 155.938 94.375C155.854 92.75 156.062 91.3542 156.562 90.1875C157.062 88.9792 157.979 88.0833 159.312 87.5C159.896 87.25 160.667 87.125 161.625 87.125C162.625 87.0833 163.604 87.125 164.562 87.25C165.562 87.3333 166.458 87.4583 167.25 87.625C168.042 87.75 168.542 87.8542 168.75 87.9375C168.583 85.8125 168.458 83.9792 168.375 82.4375C168.292 80.8542 168.125 79.8333 167.875 79.375C167.667 79.0833 167.417 78.7917 167.125 78.5C166.875 78.2917 166.542 78.0625 166.125 77.8125C165.708 77.5625 165.208 77.375 164.625 77.25C164.167 77.1667 163.75 77.3542 163.375 77.8125C163.042 78.2292 162.729 78.9792 162.438 80.0625C162.188 81.1042 162.042 82.7083 162 84.875C160.542 84.9167 159.417 84.9167 158.625 84.875C157.875 84.7917 157.312 84.7083 156.938 84.625C156.479 84.5417 156.208 84.4375 156.125 84.3125C156.042 84.1458 156.083 83.5417 156.25 82.5C156.417 81.4167 156.646 80.25 156.938 79C157.271 77.75 157.646 76.5625 158.062 75.4375C158.521 74.3125 159 73.6042 159.5 73.3125C160.5 72.7292 161.688 72.5208 163.062 72.6875C164.479 72.8542 165.854 73.2083 167.188 73.75C168.521 74.2917 169.708 74.8958 170.75 75.5625C171.792 76.2292 172.458 76.75 172.75 77.125ZM168.875 95.375C168.875 95.1667 168.896 94.8958 168.938 94.5625C168.979 94.1875 169 93.8125 169 93.4375C169 93.0625 168.979 92.7083 168.938 92.375C168.938 92.0417 168.896 91.7917 168.812 91.625C168.688 91.375 168.312 91.1667 167.688 91C167.104 90.8333 166.438 90.7292 165.688 90.6875C164.938 90.6042 164.229 90.5833 163.562 90.625C162.896 90.625 162.438 90.7083 162.188 90.875C161.854 91.0833 161.604 91.375 161.438 91.75C161.312 92.125 161.229 92.7083 161.188 93.5C161.188 93.875 161.208 94.2708 161.25 94.6875C161.292 95.1042 161.333 95.5208 161.375 95.9375C161.458 96.3125 161.542 96.6458 161.625 96.9375C161.75 97.2292 161.875 97.4167 162 97.5C162.292 97.7083 162.792 97.8958 163.5 98.0625C164.25 98.1875 165 98.2292 165.75 98.1875C166.5 98.1042 167.188 97.8542 167.812 97.4375C168.438 97.0208 168.792 96.3333 168.875 95.375ZM193.062 81.5625C193.479 81.8125 193.875 82.2708 194.25 82.9375C194.667 83.6042 195.042 84.375 195.375 85.25C195.708 86.0833 195.979 87 196.188 88C196.396 88.9583 196.5 89.875 196.5 90.75C196.5 91.3333 196.417 92.2083 196.25 93.375C196.083 94.5 195.875 95.75 195.625 97.125C195.375 98.4583 195.104 99.8333 194.812 101.25C194.521 102.667 194.25 103.958 194 105.125C193.75 106.292 193.521 107.271 193.312 108.062C193.104 108.854 192.979 109.292 192.938 109.375C192.854 109.5 192.604 109.583 192.188 109.625C191.812 109.667 191.396 109.646 190.938 109.562C190.521 109.479 190.125 109.354 189.75 109.188C189.375 109.021 189.146 108.812 189.062 108.562C189.021 108.396 189 107.875 189 107C189.042 106.083 189.083 105 189.125 103.75C189.208 102.5 189.292 101.146 189.375 99.6875C189.5 98.2292 189.604 96.875 189.688 95.625C189.771 94.3333 189.833 93.2292 189.875 92.3125C189.958 91.3958 190 90.8542 190 90.6875C190.042 90.0208 189.979 89.375 189.812 88.75C189.688 88.0833 189.5 87.5208 189.25 87.0625C189.042 86.6042 188.792 86.25 188.5 86C188.25 85.75 188 85.6667 187.75 85.75C187.375 85.8333 187 85.9375 186.625 86.0625C186.292 86.1875 186 86.2917 185.75 86.375C185.417 86.5 185.125 86.625 184.875 86.75C184.833 89.8333 184.771 92.8542 184.688 95.8125C184.604 98.7708 184.5 101.438 184.375 103.812C184.25 106.146 184.104 108.042 183.938 109.5C183.812 110.917 183.667 111.646 183.5 111.688C183.167 111.729 182.792 111.583 182.375 111.25C182 110.917 181.625 110.5 181.25 110C180.875 109.542 180.542 109.042 180.25 108.5C180 107.958 179.833 107.5 179.75 107.125C179.417 103.042 179.146 99.3958 178.938 96.1875C178.729 92.9375 178.562 90.0625 178.438 87.5625C178.312 85.0625 178.208 82.8958 178.125 81.0625C178.083 79.2292 178.062 77.6667 178.062 76.375C178.021 73.3333 178.062 71.2292 178.188 70.0625C178.354 69.1875 178.729 68.3542 179.312 67.5625C179.896 66.7292 180.521 66 181.188 65.375C181.896 64.75 182.542 64.2917 183.125 64C183.75 63.6667 184.167 63.5833 184.375 63.75C184.5 63.875 184.604 64.4583 184.688 65.5C184.812 66.5 184.896 67.8542 184.938 69.5625C184.979 71.2292 185 73.1667 185 75.375C185 77.5417 184.979 79.8333 184.938 82.25C186.604 81.5833 188.146 81.1667 189.562 81C191.021 80.8333 192.188 81.0208 193.062 81.5625ZM225.125 73C225.917 73.6667 226.5 75 226.875 77C227.25 78.9583 227.396 81.1458 227.312 83.5625C227.271 84.3125 227.167 85.3542 227 86.6875C226.833 87.9792 226.625 89.4167 226.375 91C226.167 92.5417 225.917 94.125 225.625 95.75C225.375 97.375 225.125 98.875 224.875 100.25C224.625 101.625 224.396 102.792 224.188 103.75C224.021 104.667 223.917 105.208 223.875 105.375C223.792 105.667 223.562 105.958 223.188 106.25C222.812 106.542 222.417 106.792 222 107C221.625 107.167 221.25 107.292 220.875 107.375C220.5 107.417 220.271 107.333 220.188 107.125C220.146 107 220.146 106.354 220.188 105.188C220.229 104.021 220.292 102.583 220.375 100.875C220.458 99.125 220.542 97.2708 220.625 95.3125C220.75 93.3125 220.854 91.4375 220.938 89.6875C221.021 87.9375 221.104 86.4583 221.188 85.25C221.271 84 221.312 83.25 221.312 83C221.354 81.7083 221.25 80.5833 221 79.625C220.75 78.625 220.333 78.125 219.75 78.125C219.542 78.125 219.292 78.2292 219 78.4375C218.708 78.6042 218.417 78.8125 218.125 79.0625C217.875 79.3125 217.625 79.5833 217.375 79.875C217.167 80.1667 217.062 80.4375 217.062 80.6875C217.021 81.4375 216.958 82.5417 216.875 84C216.833 85.4583 216.771 87.0625 216.688 88.8125C216.646 90.5625 216.583 92.3542 216.5 94.1875C216.458 96.0208 216.396 97.7083 216.312 99.25C216.271 100.792 216.229 102.083 216.188 103.125C216.146 104.125 216.104 104.688 216.062 104.812C215.979 104.979 215.708 105.104 215.25 105.188C214.833 105.229 214.354 105.229 213.812 105.188C213.271 105.146 212.771 105.042 212.312 104.875C211.896 104.708 211.646 104.479 211.562 104.188C211.479 103.979 211.417 103.354 211.375 102.312C211.333 101.229 211.271 99.9375 211.188 98.4375C211.146 96.9375 211.104 95.3333 211.062 93.625C211.021 91.875 210.979 90.25 210.938 88.75C210.896 87.25 210.854 85.9583 210.812 84.875C210.812 83.7917 210.812 83.125 210.812 82.875C210.812 81.875 210.729 81.0833 210.562 80.5C210.396 79.875 210.188 79.3958 209.938 79.0625C209.729 78.6875 209.479 78.4583 209.188 78.375C208.896 78.25 208.604 78.1875 208.312 78.1875C208.188 78.1875 208 78.2917 207.75 78.5C207.5 78.6667 207.25 78.9375 207 79.3125C206.75 79.6458 206.542 80.0417 206.375 80.5C206.208 80.9167 206.146 81.375 206.188 81.875C206.188 82.0833 206.208 82.8542 206.25 84.1875C206.292 85.5208 206.312 87.125 206.312 89C206.354 90.875 206.396 92.8958 206.438 95.0625C206.479 97.2292 206.5 99.25 206.5 101.125C206.542 102.958 206.562 104.521 206.562 105.812C206.562 107.062 206.562 107.729 206.562 107.812C206.479 108.021 206.25 108.146 205.875 108.188C205.5 108.188 205.083 108.104 204.625 107.938C204.167 107.771 203.729 107.542 203.312 107.25C202.896 106.917 202.604 106.521 202.438 106.062C202.354 105.729 202.229 105 202.062 103.875C201.896 102.75 201.708 101.417 201.5 99.875C201.292 98.2917 201.083 96.6042 200.875 94.8125C200.667 92.9792 200.458 91.2292 200.25 89.5625C200.042 87.8542 199.854 86.3125 199.688 84.9375C199.562 83.5625 199.458 82.5208 199.375 81.8125C199.25 80.8125 199.104 79.7292 198.938 78.5625C198.812 77.3542 198.688 76.2083 198.562 75.125C198.479 74 198.417 73.0417 198.375 72.25C198.333 71.4167 198.375 70.8958 198.5 70.6875C198.583 70.5208 198.875 70.4583 199.375 70.5C199.917 70.5417 200.479 70.6667 201.062 70.875C201.688 71.0417 202.271 71.2917 202.812 71.625C203.396 71.9167 203.771 72.2292 203.938 72.5625C204.062 72.8125 204.188 73.125 204.312 73.5C204.479 73.8333 204.646 74.375 204.812 75.125C205.521 74.5833 206.25 74.0833 207 73.625C207.75 73.125 208.5 72.75 209.25 72.5C210 72.2083 210.708 72.0625 211.375 72.0625C212.083 72.0208 212.75 72.2083 213.375 72.625C213.917 73.0417 214.438 73.7708 214.938 74.8125C216.938 73.6875 218.854 72.9167 220.688 72.5C222.562 72.0417 224.042 72.2083 225.125 73ZM235.438 91.9375C236.104 91.6875 236.854 91.4167 237.688 91.125C238.562 90.7917 239.396 90.5 240.188 90.25C240.979 89.9583 241.688 89.7083 242.312 89.5C242.938 89.2917 243.396 89.125 243.688 89C243.646 88.5417 243.583 88.0208 243.5 87.4375C243.458 86.8125 243.396 86.2292 243.312 85.6875C243.229 85.1042 243.125 84.6042 243 84.1875C242.875 83.7708 242.75 83.5208 242.625 83.4375C242.292 83.3125 241.729 83.2083 240.938 83.125C240.188 83 239.396 83.0208 238.562 83.1875C237.771 83.3542 237.042 83.6667 236.375 84.125C235.708 84.5833 235.333 85.3125 235.25 86.3125C235.167 86.9792 235.146 87.8125 235.188 88.8125C235.229 89.8125 235.312 90.8542 235.438 91.9375ZM249 92.9375C248.958 93.0208 248.458 93.1875 247.5 93.4375C246.542 93.6875 245.396 93.9583 244.062 94.25C242.729 94.5 241.312 94.7708 239.812 95.0625C238.312 95.3125 237.021 95.5208 235.938 95.6875C236.146 97.3542 236.396 98.8542 236.688 100.188C236.979 101.479 237.229 102.292 237.438 102.625C237.646 102.917 237.917 103.188 238.25 103.438C238.542 103.646 238.896 103.854 239.312 104.062C239.771 104.229 240.312 104.354 240.938 104.438C241.396 104.562 241.833 104.396 242.25 103.938C242.583 103.521 242.875 102.792 243.125 101.75C243.417 100.708 243.562 99.0625 243.562 96.8125C244.854 96.6042 245.854 96.4792 246.562 96.4375C247.312 96.3958 247.854 96.3958 248.188 96.4375C248.604 96.4792 248.854 96.5417 248.938 96.625C248.979 96.75 248.979 97.0625 248.938 97.5625C248.896 98.0625 248.792 98.6875 248.625 99.4375C248.5 100.146 248.333 100.938 248.125 101.812C247.958 102.646 247.75 103.458 247.5 104.25C247.25 105 246.979 105.688 246.688 106.312C246.396 106.896 246.083 107.312 245.75 107.562C244.75 108.312 243.5 108.688 242 108.688C240.5 108.646 239.021 108.438 237.562 108.062C236.104 107.646 234.792 107.167 233.625 106.625C232.458 106.042 231.729 105.562 231.438 105.188C231.229 104.938 231.042 104.312 230.875 103.312C230.708 102.271 230.562 101.021 230.438 99.5625C230.354 98.1042 230.292 96.5 230.25 94.75C230.208 93 230.229 91.2917 230.312 89.625C230.438 87.9583 230.604 86.4167 230.812 85C231.062 83.5833 231.396 82.4375 231.812 81.5625C232.438 80.3125 233.458 79.2917 234.875 78.5C236.292 77.7083 237.792 77.1667 239.375 76.875C240.958 76.5833 242.458 76.5417 243.875 76.75C245.333 76.9583 246.417 77.4167 247.125 78.125C247.542 78.5417 247.917 79.375 248.25 80.625C248.583 81.8333 248.792 83.3125 248.875 85.0625C248.875 85.2292 248.896 85.7083 248.938 86.5C248.979 87.2917 249 88.1458 249 89.0625C249.042 89.9375 249.062 90.7708 249.062 91.5625C249.062 92.3542 249.042 92.8125 249 92.9375ZM270.5 68.625C270.625 69.625 270.667 71.625 270.625 74.625C270.625 75.9167 270.583 77.4792 270.5 79.3125C270.458 81.1458 270.375 83.3542 270.25 85.9375C270.125 88.4792 269.958 91.4375 269.75 94.8125C269.583 98.1458 269.354 101.938 269.062 106.188C268.979 106.604 268.792 107.062 268.5 107.562C268.25 108.062 267.958 108.521 267.625 108.938C267.292 109.354 266.938 109.708 266.562 110C266.188 110.25 265.854 110.333 265.562 110.25C265.479 110.208 265.375 109.875 265.25 109.25C265.167 108.625 265.083 107.75 265 106.625C263.125 107.458 261.354 108.021 259.688 108.312C258.021 108.604 256.667 108.417 255.625 107.75C255.208 107.5 254.792 107.062 254.375 106.438C254 105.771 253.646 105 253.312 104.125C252.979 103.25 252.708 102.333 252.5 101.375C252.292 100.375 252.188 99.4375 252.188 98.5625C252.188 97.9375 252.229 97.1042 252.312 96.0625C252.396 95.0208 252.5 93.8958 252.625 92.6875C252.75 91.4375 252.896 90.1875 253.062 88.9375C253.229 87.6458 253.396 86.4583 253.562 85.375C253.729 84.2917 253.875 83.375 254 82.625C254.125 81.875 254.229 81.4167 254.312 81.25C254.396 80.75 254.542 80.3333 254.75 80C255 79.6667 255.208 79.4167 255.375 79.25C255.792 78.9167 256.396 78.6667 257.188 78.5C258.021 78.3333 258.875 78.2292 259.75 78.1875C260.667 78.1458 261.521 78.1667 262.312 78.25C263.104 78.2917 263.688 78.375 264.062 78.5H264.188C264.104 73.3333 264.104 69.3542 264.188 66.5625C264.271 63.7708 264.438 62.2708 264.688 62.0625C264.854 61.9375 265.229 62.0417 265.812 62.375C266.396 62.7083 267 63.1875 267.625 63.8125C268.292 64.4375 268.896 65.1875 269.438 66.0625C270.021 66.8958 270.375 67.75 270.5 68.625ZM261 103.625C261.583 103.5 262.104 103.354 262.562 103.188C263.062 102.979 263.479 102.792 263.812 102.625C264.188 102.458 264.5 102.25 264.75 102C264.708 100.917 264.667 99.7083 264.625 98.375C264.583 97 264.542 95.5833 264.5 94.125C264.458 92.6667 264.417 91.1875 264.375 89.6875C264.333 88.1458 264.292 86.6667 264.25 85.25C264.25 84.7917 264.167 84.3958 264 84.0625C263.875 83.7292 263.708 83.4583 263.5 83.25C263.375 83.1667 263.125 83.0625 262.75 82.9375C262.375 82.7708 261.938 82.6458 261.438 82.5625C260.979 82.4375 260.521 82.375 260.062 82.375C259.646 82.375 259.354 82.4583 259.188 82.625C259.104 82.6667 259.021 83.0833 258.938 83.875C258.896 84.625 258.833 85.5833 258.75 86.75C258.708 87.875 258.646 89.1042 258.562 90.4375C258.521 91.7708 258.479 93.0208 258.438 94.1875C258.396 95.3542 258.354 96.3542 258.312 97.1875C258.271 98.0208 258.25 98.4792 258.25 98.5625C258.25 99.2708 258.333 99.9375 258.5 100.562C258.708 101.188 258.958 101.75 259.25 102.25C259.542 102.708 259.854 103.083 260.188 103.375C260.521 103.625 260.792 103.708 261 103.625ZM278.812 97.875C278.938 98.2083 279 98.6458 279 99.1875C279 99.6875 278.938 100.229 278.812 100.812C278.688 101.354 278.521 101.896 278.312 102.438C278.146 102.938 277.958 103.354 277.75 103.688C277.583 103.938 277.354 104.146 277.062 104.312C276.771 104.479 276.458 104.604 276.125 104.688C275.792 104.729 275.479 104.75 275.188 104.75C274.896 104.75 274.667 104.75 274.5 104.75C274.25 104.708 273.979 104.521 273.688 104.188C273.438 103.854 273.208 103.458 273 103C272.833 102.5 272.708 101.979 272.625 101.438C272.542 100.854 272.562 100.312 272.688 99.8125C272.812 99.3125 273.167 98.875 273.75 98.5C274.333 98.125 274.958 97.8333 275.625 97.625C276.333 97.4167 277 97.3333 277.625 97.375C278.25 97.375 278.646 97.5417 278.812 97.875ZM299.188 68.625C299.312 69.625 299.354 71.625 299.312 74.625C299.312 75.9167 299.271 77.4792 299.188 79.3125C299.146 81.1458 299.062 83.3542 298.938 85.9375C298.812 88.4792 298.646 91.4375 298.438 94.8125C298.271 98.1458 298.042 101.938 297.75 106.188C297.667 106.604 297.479 107.062 297.188 107.562C296.938 108.062 296.646 108.521 296.312 108.938C295.979 109.354 295.625 109.708 295.25 110C294.875 110.25 294.542 110.333 294.25 110.25C294.167 110.208 294.062 109.875 293.938 109.25C293.854 108.625 293.771 107.75 293.688 106.625C291.812 107.458 290.042 108.021 288.375 108.312C286.708 108.604 285.354 108.417 284.312 107.75C283.896 107.5 283.479 107.062 283.062 106.438C282.688 105.771 282.333 105 282 104.125C281.667 103.25 281.396 102.333 281.188 101.375C280.979 100.375 280.875 99.4375 280.875 98.5625C280.875 97.9375 280.917 97.1042 281 96.0625C281.083 95.0208 281.188 93.8958 281.312 92.6875C281.438 91.4375 281.583 90.1875 281.75 88.9375C281.917 87.6458 282.083 86.4583 282.25 85.375C282.417 84.2917 282.562 83.375 282.688 82.625C282.812 81.875 282.917 81.4167 283 81.25C283.083 80.75 283.229 80.3333 283.438 80C283.688 79.6667 283.896 79.4167 284.062 79.25C284.479 78.9167 285.083 78.6667 285.875 78.5C286.708 78.3333 287.562 78.2292 288.438 78.1875C289.354 78.1458 290.208 78.1667 291 78.25C291.792 78.2917 292.375 78.375 292.75 78.5H292.875C292.792 73.3333 292.792 69.3542 292.875 66.5625C292.958 63.7708 293.125 62.2708 293.375 62.0625C293.542 61.9375 293.917 62.0417 294.5 62.375C295.083 62.7083 295.688 63.1875 296.312 63.8125C296.979 64.4375 297.583 65.1875 298.125 66.0625C298.708 66.8958 299.062 67.75 299.188 68.625ZM289.688 103.625C290.271 103.5 290.792 103.354 291.25 103.188C291.75 102.979 292.167 102.792 292.5 102.625C292.875 102.458 293.188 102.25 293.438 102C293.396 100.917 293.354 99.7083 293.312 98.375C293.271 97 293.229 95.5833 293.188 94.125C293.146 92.6667 293.104 91.1875 293.062 89.6875C293.021 88.1458 292.979 86.6667 292.938 85.25C292.938 84.7917 292.854 84.3958 292.688 84.0625C292.562 83.7292 292.396 83.4583 292.188 83.25C292.062 83.1667 291.812 83.0625 291.438 82.9375C291.062 82.7708 290.625 82.6458 290.125 82.5625C289.667 82.4375 289.208 82.375 288.75 82.375C288.333 82.375 288.042 82.4583 287.875 82.625C287.792 82.6667 287.708 83.0833 287.625 83.875C287.583 84.625 287.521 85.5833 287.438 86.75C287.396 87.875 287.333 89.1042 287.25 90.4375C287.208 91.7708 287.167 93.0208 287.125 94.1875C287.083 95.3542 287.042 96.3542 287 97.1875C286.958 98.0208 286.938 98.4792 286.938 98.5625C286.938 99.2708 287.021 99.9375 287.188 100.562C287.396 101.188 287.646 101.75 287.938 102.25C288.229 102.708 288.542 103.083 288.875 103.375C289.208 103.625 289.479 103.708 289.688 103.625ZM307.438 91.9375C308.104 91.6875 308.854 91.4167 309.688 91.125C310.562 90.7917 311.396 90.5 312.188 90.25C312.979 89.9583 313.688 89.7083 314.312 89.5C314.938 89.2917 315.396 89.125 315.688 89C315.646 88.5417 315.583 88.0208 315.5 87.4375C315.458 86.8125 315.396 86.2292 315.312 85.6875C315.229 85.1042 315.125 84.6042 315 84.1875C314.875 83.7708 314.75 83.5208 314.625 83.4375C314.292 83.3125 313.729 83.2083 312.938 83.125C312.188 83 311.396 83.0208 310.562 83.1875C309.771 83.3542 309.042 83.6667 308.375 84.125C307.708 84.5833 307.333 85.3125 307.25 86.3125C307.167 86.9792 307.146 87.8125 307.188 88.8125C307.229 89.8125 307.312 90.8542 307.438 91.9375ZM321 92.9375C320.958 93.0208 320.458 93.1875 319.5 93.4375C318.542 93.6875 317.396 93.9583 316.062 94.25C314.729 94.5 313.312 94.7708 311.812 95.0625C310.312 95.3125 309.021 95.5208 307.938 95.6875C308.146 97.3542 308.396 98.8542 308.688 100.188C308.979 101.479 309.229 102.292 309.438 102.625C309.646 102.917 309.917 103.188 310.25 103.438C310.542 103.646 310.896 103.854 311.312 104.062C311.771 104.229 312.312 104.354 312.938 104.438C313.396 104.562 313.833 104.396 314.25 103.938C314.583 103.521 314.875 102.792 315.125 101.75C315.417 100.708 315.562 99.0625 315.562 96.8125C316.854 96.6042 317.854 96.4792 318.562 96.4375C319.312 96.3958 319.854 96.3958 320.188 96.4375C320.604 96.4792 320.854 96.5417 320.938 96.625C320.979 96.75 320.979 97.0625 320.938 97.5625C320.896 98.0625 320.792 98.6875 320.625 99.4375C320.5 100.146 320.333 100.938 320.125 101.812C319.958 102.646 319.75 103.458 319.5 104.25C319.25 105 318.979 105.688 318.688 106.312C318.396 106.896 318.083 107.312 317.75 107.562C316.75 108.312 315.5 108.688 314 108.688C312.5 108.646 311.021 108.438 309.562 108.062C308.104 107.646 306.792 107.167 305.625 106.625C304.458 106.042 303.729 105.562 303.438 105.188C303.229 104.938 303.042 104.312 302.875 103.312C302.708 102.271 302.562 101.021 302.438 99.5625C302.354 98.1042 302.292 96.5 302.25 94.75C302.208 93 302.229 91.2917 302.312 89.625C302.438 87.9583 302.604 86.4167 302.812 85C303.062 83.5833 303.396 82.4375 303.812 81.5625C304.438 80.3125 305.458 79.2917 306.875 78.5C308.292 77.7083 309.792 77.1667 311.375 76.875C312.958 76.5833 314.458 76.5417 315.875 76.75C317.333 76.9583 318.417 77.4167 319.125 78.125C319.542 78.5417 319.917 79.375 320.25 80.625C320.583 81.8333 320.792 83.3125 320.875 85.0625C320.875 85.2292 320.896 85.7083 320.938 86.5C320.979 87.2917 321 88.1458 321 89.0625C321.042 89.9375 321.062 90.7708 321.062 91.5625C321.062 92.3542 321.042 92.8125 321 92.9375ZM328.938 102.188C328.354 100.062 327.708 97.5625 327 94.6875C326.417 92.2292 325.708 89.25 324.875 85.75C324.083 82.2083 323.229 78.1667 322.312 73.625C322.312 73.3333 322.5 72.9792 322.875 72.5625C323.208 72.1042 323.625 71.6875 324.125 71.3125C324.625 70.8958 325.146 70.5625 325.688 70.3125C326.229 70.0208 326.708 69.875 327.125 69.875C327.292 70.125 327.583 71.2292 328 73.1875C328.167 74.0208 328.354 75.0833 328.562 76.375C328.812 77.625 329.083 79.1875 329.375 81.0625C329.667 82.9375 329.979 85.1458 330.312 87.6875C330.688 90.1875 331.104 93.0833 331.562 96.375C331.896 94.125 332.208 92 332.5 90C332.833 88 333.125 86.2292 333.375 84.6875C333.667 82.8958 333.938 81.2292 334.188 79.6875C334.312 78.7292 334.458 77.7292 334.625 76.6875C334.792 75.6042 334.958 74.625 335.125 73.75C335.333 72.875 335.542 72.1458 335.75 71.5625C336 70.9375 336.25 70.625 336.5 70.625C336.75 70.625 337.125 70.6875 337.625 70.8125C338.125 70.8958 338.625 71.0208 339.125 71.1875C339.667 71.3542 340.146 71.5625 340.562 71.8125C340.979 72.0208 341.188 72.25 341.188 72.5C341.188 72.625 341.062 73.25 340.812 74.375C340.562 75.4583 340.229 76.8542 339.812 78.5625C339.396 80.2708 338.917 82.2083 338.375 84.375C337.833 86.5 337.271 88.6667 336.688 90.875C336.146 93.0833 335.583 95.25 335 97.375C334.417 99.5 333.875 101.396 333.375 103.062C332.917 104.688 332.521 106.021 332.188 107.062C331.854 108.062 331.625 108.562 331.5 108.562C331.375 108.562 331.021 108 330.438 106.875C329.896 105.708 329.396 104.146 328.938 102.188Z" fill="black"/>
</svg>
